Coordinates
version=1
nRows=11
nColumns=21
inDegrees=yes

Units are S.I. units (second, meters, Newtons, ...)
Angles are in degrees.

endheader
time	sternoclavicular_r2	sternoclavicular_r3	unrotscap_r3	unrotscap_r2	acromioclavicular_r2	acromioclavicular_r3	acromioclavicular_r1	unrothum_r1	unrothum_r3	unrothum_r2	elv_angle	shoulder_elev	shoulder1_r2	shoulder_rot	elbow_flexion	pro_sup	deviation	flexion	wrist_hand_r1	wrist_hand_r3
      1.67338710	    -15.23923551	      6.45462091	     -6.45462091	     15.23923551	     -3.08563520	     24.93701830	     11.20901810	    -11.20901810	    -24.93701830	      3.08563520	     85.73242783	     62.97190641	    -85.73242783	     19.68525636	      5.57317103	     90.00000000	      0.00000000	      0.00000000	      0.00000000	      0.00000000
      1.69354839	    -15.10723661	      6.39871241	     -6.39871241	     15.10723661	     -3.05890811	     24.72101935	     11.11192806	    -11.11192806	    -24.72101935	      3.05890811	     85.75497056	     62.42645765	    -85.75497056	     19.70723612	      5.56151326	     90.00000000	      0.00000000	      0.00000000	      0.00000000	      0.00000000
      1.71370968	    -14.94163143	      6.32856987	     -6.32856987	     14.94163143	     -3.02537643	     24.45002810	     10.99011936	    -10.99011936	    -24.45002810	      3.02537643	     85.77219875	     61.74214025	    -85.77219875	     19.72671325	      5.57888373	     90.00000000	      0.00000000	      0.00000000	      0.00000000	      0.00000000
      1.73387097	    -14.74439980	      6.24503186	     -6.24503186	     14.74439980	     -2.98544103	     24.12728430	     10.84504824	    -10.84504824	    -24.12728430	      2.98544103	     85.78895201	     60.92713533	    -85.78895201	     19.74695001	      5.60073523	     90.00000000	      0.00000000	      0.00000000	      0.00000000	      0.00000000
      1.75403226	    -14.51510624	      6.14791393	     -6.14791393	     14.51510624	     -2.93901375	     23.75207534	     10.67639440	    -10.67639440	    -23.75207534	      2.93901375	     85.80533548	     59.97964343	    -85.80533548	     19.76682711	      5.62524421	     90.00000000	      0.00000000	      0.00000000	      0.00000000	      0.00000000
      1.77419355	    -14.25368033	      6.03718625	     -6.03718625	     14.25368033	     -2.88608032	     23.32428599	     10.48410603	    -10.48410603	    -23.32428599	      2.88608032	     85.82022076	     58.89937349	    -85.82022076	     19.78576227	      5.65181528	     90.00000000	      0.00000000	      0.00000000	      0.00000000	      0.00000000
      1.79435484	    -13.96001782	      5.91280467	     -5.91280467	     13.96001782	     -2.82661964	     22.84374565	     10.26810645	    -10.26810645	    -22.84374565	      2.82661964	     85.83007438	     57.68589475	    -85.83007438	     19.80229539	      5.68154972	     90.00000000	      0.00000000	      0.00000000	      0.00000000	      0.00000000
      1.81451613	    -13.63653389	      5.77579214	     -5.77579214	     13.63653389	     -2.76112072	     22.31440645	     10.03017212	    -10.03017212	    -22.31440645	      2.76112072	     85.84001823	     56.34918728	    -85.84001823	     19.81971409	      5.70832681	     90.00000000	      0.00000000	      0.00000000	      0.00000000	      0.00000000
      1.83467742	    -13.28295054	      5.62603093	     -5.62603093	     13.28295054	     -2.68952729	     21.73581349	      9.77009857	     -9.77009857	    -21.73581349	      2.68952729	     85.84361215	     54.88810236	    -85.84361215	     19.83394345	      5.73560891	     90.00000000	      0.00000000	      0.00000000	      0.00000000	      0.00000000
      1.85483871	    -12.90148839	      5.46446157	     -5.46446157	     12.90148839	     -2.61228896	     21.11160051	      9.48951913	     -9.48951913	    -21.11160051	      2.61228896	     85.84137818	     53.31181602	    -85.84137818	     19.84662153	      5.76115252	     90.00000000	      0.00000000	      0.00000000	      0.00000000	      0.00000000
      1.87500000	    -12.49423663	      5.29196894	     -5.29196894	     12.49423663	     -2.52982877	     20.44518620	      9.18997049	     -9.18997049	    -20.44518620	      2.52982877	     85.83263105	     51.62896127	    -85.83263105	     19.85782144	      5.78382111	     90.00000000	      0.00000000	      0.00000000	      0.00000000	      0.00000000
